<svg xmlns="http://www.w3.org/2000/svg" width="12" height="6" viewBox="0 0 12 6"><defs><style>.a{fill:none;}.b,.c{stroke:none;}.c{fill:#fff;}</style></defs><g class="a" transform="translate(12 6) rotate(180)"><path class="b" d="M5.293.707a1,1,0,0,1,1.414,0l3.586,3.586A1,1,0,0,1,9.586,6H2.414a1,1,0,0,1-.707-1.707Z"/><path class="c" d="M 5.999999523162842 1.414211273193359 L 5.999999523162842 1.414221286773682 L 2.414219856262207 5.000001430511475 C 2.414219856262207 5.000001430511475 2.414219856262207 5.000001430511475 2.414209365844727 5.000001430511475 L 9.585779190063477 5.000001430511475 L 6.000949382781982 1.414291381835938 C 6.00085973739624 1.414271354675293 6.000499725341797 1.414211273193359 5.999999523162842 1.414211273193359 M 5.999999523162842 0.4142136573791504 C 6.255921840667725 0.4142136573791504 6.511844635009766 0.5118465423583984 6.707109451293945 0.7071113586425781 L 10.29288959503174 4.292891502380371 C 10.92285919189453 4.922861099243164 10.47668933868408 6.000001430511475 9.585789680480957 6.000001430511475 L 2.414209365844727 6.000001430511475 C 1.523309707641602 6.000001430511475 1.077139854431152 4.922861099243164 1.707109451293945 4.292891502380371 L 5.292889595031738 0.7071113586425781 C 5.488154411315918 0.5118465423583984 5.744077205657959 0.4142136573791504 5.999999523162842 0.4142136573791504 Z"/></g></svg>