<svg xmlns="http://www.w3.org/2000/svg" width="24.119" height="21.705" viewBox="0 0 24.119 21.705"><defs><style>.a{fill:#fff;}</style></defs><g transform="translate(0 0)"><path class="a" d="M345.693,129.934a.731.731,0,0,1-.705-.928,2.389,2.389,0,0,1,.65-1.1,2.678,2.678,0,0,1,1.977-.665.731.731,0,1,1-.044,1.461,1.25,1.25,0,0,0-.928.267.936.936,0,0,0-.248.442A.731.731,0,0,1,345.693,129.934Zm11.227,11.859a.735.735,0,0,1-.161-1.461.935.935,0,0,0,.453-.227c.829-.789.033-3.654-2.481-6.635a.731.731,0,1,1,1.118-.939c3.01,3.584,3.993,7.135,2.382,8.655a2.386,2.386,0,0,1-1.136.592A.729.729,0,0,1,356.921,141.793Z" transform="translate(-337.371 -126.683)"/><path class="a" d="M353.192,187.441c-2.061,0-4.976-1.666-7.541-4.384-2.886-3.036-4.428-6.427-3.854-8.458a.731.731,0,0,1,1.407.395c-.365,1.257.756,4.161,3.507,7.066s5.6,4.172,6.869,3.884a.731.731,0,0,1,.322,1.425A3.232,3.232,0,0,1,353.192,187.441Z" transform="translate(-334.175 -172.275)"/><path class="a" d="M62.034,193.305a.731.731,0,0,1-.676-1.008l7.592-18.454a.731.731,0,1,1,1.352.555l-6.986,16.949,17.31-6.058a.731.731,0,1,1,.482,1.363l-18.834,6.613A.731.731,0,0,1,62.034,193.305Z" transform="translate(-61.303 -171.6)"/><path class="a" d="M164.607,437.5a.731.731,0,0,1-.457-.161,37.677,37.677,0,0,1-7.216-7.618.731.731,0,0,1,1.191-.848,35.472,35.472,0,0,0,6.92,7.322.731.731,0,0,1-.438,1.3Zm-5.531,1.933a.731.731,0,0,1-.493-.19c-.694-.632-1.37-1.293-2.006-1.966s-1.26-1.381-1.856-2.108a.731.731,0,1,1,1.118-.924c.574.7,1.173,1.381,1.783,2.028s1.26,1.282,1.929,1.889a.731.731,0,0,1-.493,1.271Z" transform="translate(-151.998 -419.949)"/><path class="a" d="M636.555,427.691m-.87.824a1.2,1.2,0,1,0,.045-1.694A1.2,1.2,0,0,0,635.685,428.515Z" transform="translate(-619.995 -417.93)"/><path class="a" d="M483.97,112.352h-.08a2.923,2.923,0,1,1,.08,0Zm0-4.384a1.461,1.461,0,1,0,1.06.438,1.461,1.461,0,0,0-1.06-.438Zm6.923,4.03a.731.731,0,0,1-.508-1.253l2.269-2.192a.731.731,0,0,1,1.019,1.049l-2.269,2.192a.731.731,0,0,1-.512.2Z" transform="translate(-469.776 -106.506)"/><path class="a" d="M828.039,177.18a.731.731,0,0,1-.519-.223l-2.192-2.269a.731.731,0,0,1,1.049-1.019l2.192,2.269a.731.731,0,0,1-.522,1.239Z" transform="translate(-804.682 -171.656)"/></g></svg>