<svg xmlns="http://www.w3.org/2000/svg" width="21.569" height="24.078" viewBox="0 0 21.569 24.078"><defs><style>.a{fill:#2a999a;}</style></defs><g transform="translate(-154.493 -211.754)"><circle class="a" cx="5.125" cy="5.125" r="5.125" transform="translate(165.262 223.28)"/><g transform="translate(154.493 211.754)"><path d="M94.972.1A1,1,0,0,1,95.64.054l.13.046L104.8,4.017a1,1,0,0,1,.595.789l.009.131v6.206a1,1,0,0,1-2,.116l-.007-.116V5.6L95.37,2.114,87.34,5.6v8.369c0,2.769,2.129,5.272,5.976,7.056l.334.15a1,1,0,0,1-.811,1.836c-4.6-2.032-7.374-5.118-7.5-8.78l-.005-.263V4.937a1,1,0,0,1,.486-.86l.118-.06Z" transform="translate(-85.333 -0.017)"/><path d="M517.016,512A5.016,5.016,0,1,1,512,517.016,5.017,5.017,0,0,1,517.016,512Zm0,2.007a3.01,3.01,0,1,0,3.01,3.01A3.01,3.01,0,0,0,517.016,514.007Z" transform="translate(-501.967 -499.961)"/><path d="M832.3,853.633a1,1,0,0,1,1.324-.083l.094.083,2.007,2.007a1,1,0,0,1-1.324,1.5l-.094-.083-2.007-2.007A1,1,0,0,1,832.3,853.633Z" transform="translate(-814.451 -833.273)"/></g></g></svg>