<svg xmlns="http://www.w3.org/2000/svg" width="25.185" height="25.182" viewBox="0 0 25.185 25.182"><defs><style>.a{fill:#fff;}</style></defs><g transform="translate(-31.3 -31.3)"><path class="a" d="M33.087,45.442a10.916,10.916,0,0,1,20.67-6.226.842.842,0,0,0,.757.48.839.839,0,0,0,.757-1.2,12.593,12.593,0,0,0-11.38-7.2A12.585,12.585,0,0,0,31.3,43.891a12.7,12.7,0,0,0,.126,1.787.839.839,0,0,0,.828.721.891.891,0,0,0,.118-.008A.839.839,0,0,0,33.087,45.442Zm23.167-3.949a.839.839,0,0,0-1.648.317,11.042,11.042,0,0,1,.2,2.081,10.916,10.916,0,0,1-20.817,4.594.838.838,0,0,0-1.52.708,12.594,12.594,0,0,0,11.425,7.29A12.585,12.585,0,0,0,56.485,43.891,12.666,12.666,0,0,0,56.254,41.493Z" transform="translate(0 0)"/><path class="a" d="M329.84,264.112a.844.844,0,0,0,0-1.687h-3.367v-.042a.856.856,0,0,0,.275-.183l3.307-3.307a.845.845,0,0,0-1.2-1.195l-3.179,3.181-3.171-3.171a.845.845,0,0,0-1.195,1.195l3.3,3.3a.848.848,0,0,0,.165.128c0,.018,0,.037,0,.055v.037h-3.32a.844.844,0,1,0,0,1.688h3.32v1.7h-3.338a.844.844,0,1,0,0,1.688h3.338v3.365a.781.781,0,0,0,.781.781h.126a.781.781,0,0,0,.781-.781v-3.365h3.367a.844.844,0,0,0,0-1.688h-3.365v-1.7h3.367Z" transform="translate(-281.719 -220.224)"/></g></svg>