<svg xmlns="http://www.w3.org/2000/svg" width="11.834" height="11.799" viewBox="0 0 11.834 11.799"><defs><style>.a{fill:#2a999a;}</style></defs><g transform="translate(-65.5 -64.8)"><path class="a" d="M345.027,477.847h-7a.424.424,0,0,1,0-.847h7a.424.424,0,0,1,0,.847Z" transform="translate(-268.497 -406.742)"/><path class="a" d="M705.995,280.521a.418.418,0,0,1-.3-.124l-2.546-2.547a.424.424,0,0,1,.6-.6l2.545,2.549a.423.423,0,0,1-.3.723Z" transform="translate(-629.084 -209.514)"/><path class="a" d="M703.148,488.018a.418.418,0,0,1-.3-.124.424.424,0,0,1,0-.6l2.547-2.545a.424.424,0,0,1,.6.6l-2.549,2.545A.418.418,0,0,1,703.148,488.018Z" transform="translate(-628.788 -414.266)"/><path class="a" d="M72.764,76.6H67.9a2.4,2.4,0,0,1-2.4-2.4v-7a2.4,2.4,0,0,1,2.4-2.4h4.865a.424.424,0,0,1,0,.847H67.9A1.554,1.554,0,0,0,66.347,67.2v7A1.554,1.554,0,0,0,67.9,75.751h4.865a.424.424,0,0,1,0,.847Z"/></g></svg>