<svg xmlns="http://www.w3.org/2000/svg" width="26.569" height="26.569" viewBox="0 0 26.569 26.569"><defs><style>.a{fill:#fff;}</style></defs><path class="a" d="M87.3,64.951a3.435,3.435,0,0,1,3.542,3.324V88.2A3.436,3.436,0,0,1,87.3,91.52H67.817a3.436,3.436,0,0,1-3.542-3.325V68.275a3.436,3.436,0,0,1,3.542-3.324H87.3Zm1.644,22.234v-17.9a2.54,2.54,0,0,0-2.635-2.437h-17.5a2.546,2.546,0,0,0-2.635,2.437v17.9a2.54,2.54,0,0,0,2.635,2.438h17.5a2.547,2.547,0,0,0,2.635-2.438ZM73.23,77.08h4.863a.237.237,0,0,0,.237-.237V73.372a.949.949,0,1,1,1.9,0V83.1a.949.949,0,1,1-1.9,0V79.215a.237.237,0,0,0-.237-.237H73.23a.237.237,0,0,0-.237.237V83.1a.949.949,0,0,1-1.9,0V73.372a.949.949,0,0,1,1.9,0v3.471A.237.237,0,0,0,73.23,77.08Zm9.845-1.336a.949.949,0,0,1,.949.949v6.4a.949.949,0,1,1-1.9,0v-6.4A.949.949,0,0,1,83.075,75.745Zm0-3.321a.949.949,0,0,1,.949.949v.712a.949.949,0,0,1-1.9,0v-.712A.949.949,0,0,1,83.075,72.424Z" transform="translate(-64.275 -64.951)"/></svg>