<svg xmlns="http://www.w3.org/2000/svg" width="30.175" height="30" viewBox="0 0 30.175 30"><defs><style>.a,.b{fill:#2a999a;}.b{opacity:0.503;}</style></defs><path class="a" d="M2.027,326.8l1.894-1.883,2.526,2.51L5.183,328.68a3.536,3.536,0,0,0,0,5.02l1.263,1.256a3.586,3.586,0,0,0,5.05,0l6.313-6.276a3.536,3.536,0,0,0,0-5.021L16.547,322.4a3.536,3.536,0,0,0-.72-.54l2.615-2.6,2.525,2.51a6.188,6.188,0,0,1,0,8.787l-7.575,7.531a6.275,6.275,0,0,1-8.838,0l-2.525-2.51a6.188,6.188,0,0,1,0-8.787Z" transform="translate(-0.197 -309.914)"/><path class="b" d="M277.935,13.314,276.041,15.2l-2.526-2.51,1.263-1.256a3.536,3.536,0,0,0,0-5.02l-1.263-1.256a3.586,3.586,0,0,0-5.049,0l-6.313,6.276a3.536,3.536,0,0,0,0,5.021l1.262,1.255a3.536,3.536,0,0,0,.72.54l-2.615,2.6L259,18.335a6.188,6.188,0,0,1,0-8.787l7.575-7.531a6.275,6.275,0,0,1,8.838,0l2.525,2.51A6.188,6.188,0,0,1,277.935,13.314Z" transform="translate(-249.591 -0.197)"/></svg>