<svg xmlns="http://www.w3.org/2000/svg" width="16.173" height="16.283" viewBox="0 0 16.173 16.283">
  <path id="qian" d="M100.8,106.323c0-.043,0-.088,0-.132A.773.773,0,0,0,100.8,106.323Zm8.128-4.591a.44.44,0,1,0,0-.88c-3.464,0-6.282,2.49-6.282,5.55,0,.092,0,.183.008.275a.438.438,0,0,0,.44.416h.024a.44.44,0,0,0,.416-.463c0-.075-.006-.151-.006-.226C103.528,103.825,105.951,101.732,108.928,101.732Zm.6,4.678v-1.451a2.185,2.185,0,0,1,.943.544l.554-.729a2.788,2.788,0,0,0-1.5-.727v-.892h-.189v-.02h-.672V104a1.723,1.723,0,0,0-1.769,1.626c0,1.09.905,1.4,1.769,1.618v1.626a2.4,2.4,0,0,1-1.4-.754l-.554.762a2.953,2.953,0,0,0,1.954.872v.809h.41v0h.45v-.84a1.691,1.691,0,0,0,1.63-1.689c0-1.043-.815-1.4-1.63-1.624Zm-.858-.228c-.444-.134-.762-.3-.762-.628,0-.369.293-.628.762-.687Zm.858,2.659v-1.353c.365.135.624.316.624.64A.755.755,0,0,1,109.531,108.84Zm7.419-2.987c-.269-3.819-3.776-6.853-8.061-6.853-4.411,0-8.008,3.215-8.087,7.191,0,.132.02,1.979.02,1.979,0,3.922,3.621,7.113,8.073,7.113s8.073-3.191,8.073-7.113c0-.124,0-.287.006-.475C116.969,106.721,116.958,106.415,116.95,105.853Zm-8.055,8.55a7.248,7.248,0,0,1-6.689-3.963,8.568,8.568,0,0,0,13.4-.041A7.245,7.245,0,0,1,108.895,114.4Zm-.006-1.64c-3.975,0-7.207-2.891-7.207-6.441s3.232-6.441,7.207-6.441c3.957,0,7.176,2.865,7.2,6.4,0,.02,0,.039,0,.061C116.086,109.881,112.857,112.764,108.889,112.764Z" transform="translate(-100.8 -99)" fill="#333"/>
</svg>
