<svg xmlns="http://www.w3.org/2000/svg" width="35.828" height="35.616" viewBox="0 0 35.828 35.616"><defs><style>.a{fill:#2a999a;}</style></defs><path class="a" d="M40.25,51.118a1.335,1.335,0,0,1,2.67,0,8.444,8.444,0,0,0,8.456,8.324,1.314,1.314,0,1,1,0,2.629A11.044,11.044,0,0,1,40.25,51.118ZM51.376,64.7a13.582,13.582,0,1,0-13.8-13.581A13.646,13.646,0,0,0,51.376,64.7Zm12.373-2.891,6.587,6.484a1.257,1.257,0,0,1,0,1.84,1.3,1.3,0,0,1-1.869,0L61.791,63.56a16.708,16.708,0,0,1-10.415,3.68A16.168,16.168,0,1,1,67.844,51.118,15.7,15.7,0,0,1,63.749,61.808Z" transform="translate(-34.909 -34.909)"/></svg>