<svg xmlns="http://www.w3.org/2000/svg" width="16.205" height="16.203" viewBox="0 0 16.205 16.203"><defs><style>.a{fill:#fff;}</style></defs><path class="a" d="M79.67,78.058h0a1.929,1.929,0,0,1-1.929,1.929H65.394a1.929,1.929,0,0,1-1.929-1.929V66.483a1.543,1.543,0,0,1,1.543-1.543h6.239l1.581-1.132a.382.382,0,0,1,.489.227l.329.9h2.936a1.543,1.543,0,0,1,1.543,1.543v1.157h0a1.543,1.543,0,0,1,1.543,1.543ZM65.008,65.712h0c-.426,0-.772.731-.772,1.157a.772.772,0,0,0,.772.772h.245s.008-.006.013-.008l4.623-1.921H65.008Zm8.132.07-.41-1.128v.386h0l-1.374.673h0l-4.259,1.929h6.969l-.922-1.86Zm4.214.7a.772.772,0,0,0-.772-.772H73.928l.947,1.929h2.48Zm.772,1.929H65.008a1.527,1.527,0,0,1-.771-.214v9.86a1.157,1.157,0,0,0,1.158,1.157H77.741A1.157,1.157,0,0,0,78.9,78.058v-2.7H77.355a1.543,1.543,0,0,1,0-3.087H78.9V69.184A.772.772,0,0,0,78.127,68.413Zm.772,6.173V73.042H77.355a.772.772,0,0,0,0,1.543Zm-1.543-1.158h.772V74.2h-.772Zm0,0" transform="translate(-63.465 -63.785)"/></svg>