<svg xmlns="http://www.w3.org/2000/svg" width="20.599" height="20.599" viewBox="0 0 20.599 20.599"><defs><style>.a{fill:#e22828;}</style></defs><g transform="translate(0 0)"><path class="a" d="M109.726,95.155a10.3,10.3,0,1,0,0,14.572A10.315,10.315,0,0,0,109.726,95.155Zm-1.046,13.526a8.825,8.825,0,1,1,0-12.481A8.835,8.835,0,0,1,108.68,108.681Z" transform="translate(-92.141 -92.141)"/><path class="a" d="M470.062,298.225a1.11,1.11,0,1,0,1.111,1.11A1.111,1.111,0,0,0,470.062,298.225Z" transform="translate(-459.71 -293.17)"/><path class="a" d="M480.858,427.29a.839.839,0,0,0-.838.838v6.563a.838.838,0,0,0,1.676,0v-6.563A.839.839,0,0,0,480.858,427.29Z" transform="translate(-470.505 -419.068)"/></g></svg>